<?xml version="1.0" encoding="UTF-8" standalone="no"?>
<!-- Created with Inkscape (http://www.inkscape.org/) -->

<svg
   xmlns:dc="http://purl.org/dc/elements/1.1/"
   xmlns:cc="http://creativecommons.org/ns#"
   xmlns:rdf="http://www.w3.org/1999/02/22-rdf-syntax-ns#"
   xmlns:svg="http://www.w3.org/2000/svg"
   xmlns="http://www.w3.org/2000/svg"
   xmlns:sodipodi="http://sodipodi.sourceforge.net/DTD/sodipodi-0.dtd"
   xmlns:inkscape="http://www.inkscape.org/namespaces/inkscape"
   width="210mm"
   height="297mm"
   viewBox="0 0 744.09448819 1052.3622047"
   id="svg17940"
   version="1.1"
   inkscape:version="0.91 r13725"
   sodipodi:docname="403.svg">
  <defs
     id="defs17942" />
  <sodipodi:namedview
     id="base"
     pagecolor="#ffffff"
     bordercolor="#666666"
     borderopacity="1.0"
     inkscape:pageopacity="0.0"
     inkscape:pageshadow="2"
     inkscape:zoom="0.7"
     inkscape:cx="262.28188"
     inkscape:cy="806.76659"
     inkscape:document-units="px"
     inkscape:current-layer="g18540"
     showgrid="false"
     inkscape:window-width="1920"
     inkscape:window-height="1033"
     inkscape:window-x="0"
     inkscape:window-y="0"
     inkscape:window-maximized="1" />
  <metadata
     id="metadata17945">
    <rdf:RDF>
      <cc:Work
         rdf:about="">
        <dc:format>image/svg+xml</dc:format>
        <dc:type
           rdf:resource="http://purl.org/dc/dcmitype/StillImage" />
        <dc:title></dc:title>
      </cc:Work>
    </rdf:RDF>
  </metadata>
  <g
     inkscape:label="Layer 1"
     inkscape:groupmode="layer"
     id="layer1">
    <g
       id="g18540"
       transform="matrix(0.55321112,-0.83304109,0.83304109,0.55321112,215.14006,262.57449)">
      <rect
         style="color:#000000;clip-rule:nonzero;display:inline;overflow:visible;visibility:visible;opacity:1;isolation:auto;mix-blend-mode:normal;color-interpolation:sRGB;color-interpolation-filters:linearRGB;solid-color:#000000;solid-opacity:1;fill:#6a6d88;fill-opacity:1;fill-rule:nonzero;stroke:none;stroke-width:1.9926846;stroke-linecap:butt;stroke-linejoin:round;stroke-miterlimit:4;stroke-dasharray:none;stroke-dashoffset:0;stroke-opacity:0;color-rendering:auto;image-rendering:auto;shape-rendering:auto;text-rendering:auto;enable-background:accumulate"
         id="rect18622"
         width="497.55374"
         height="484.5889"
         x="-225.85802"
         y="-269.08325"
         transform="matrix(0.55321112,0.83304109,-0.83304109,0.55321112,0,0)" />
      <path
         style="color:#000000;clip-rule:nonzero;display:inline;overflow:visible;visibility:visible;opacity:1;isolation:auto;mix-blend-mode:normal;color-interpolation:sRGB;color-interpolation-filters:linearRGB;solid-color:#000000;solid-opacity:1;fill:#8e7e6c;fill-opacity:1;fill-rule:nonzero;stroke:#000000;stroke-width:1;stroke-linecap:butt;stroke-linejoin:round;stroke-miterlimit:4;stroke-dasharray:none;stroke-dashoffset:0;stroke-opacity:1;color-rendering:auto;image-rendering:auto;shape-rendering:auto;text-rendering:auto;enable-background:accumulate"
         d="m -10.674237,133.28172 c 13.0838787,28.90547 49.915007,75.16344 49.915007,75.16344 2.536969,3.82024 1.426612,8.98942 -2.489576,11.59012 0,0 -27.2932401,15.14401 -38.879136,25.8191 -3.4550975,3.18347 -9.11133,1.61888 -11.648299,-2.20136 0,0 -28.59736,-50.73221 -49.915001,-75.16344 -3.016305,-3.45684 -1.266815,-10.23158 2.489568,-11.59011 14.733549,-5.32854 38.879136,-25.8191 38.879136,-25.8191 3.916196,-2.60069 9.756058,-1.97909 11.648301,2.20135 z"
         id="rect18624-6-3-1"
         inkscape:connector-curvature="0"
         sodipodi:nodetypes="sssssssss" />
      <path
         sodipodi:nodetypes="zzzzzzzzzzzzzzzzzzzzzzzzzzzzzz"
         inkscape:connector-curvature="0"
         id="path18499-5"
         d="m 210.94694,132.96722 c 9.02219,4.52553 -0.56095,22.55485 1.253,39.93249 1.81396,17.37763 11.36235,47.5212 11.4014,63.87055 0.039,16.34936 2.97802,25.85583 -5.68084,32.72681 -8.65887,6.87098 -23.54308,-0.48962 -33.05211,-1.89832 -9.50903,-1.40869 -16.68615,-2.05192 -23.88477,-5.76344 -7.19861,-3.71153 -12.09161,-9.55354 -18.13578,-15.75632 -6.04416,-6.2028 -11.44039,-15.95725 -17.77166,-21.55876 -6.33128,-5.60152 -11.84742,-9.01013 -19.21371,-12.24086 -7.366309,-3.23074 -18.579055,-6.04187 -24.627676,-6.53549 -6.048622,-0.49361 -5.384142,-1.61652 -10.881409,1.05374 -5.497266,2.67026 -12.702536,14.64728 -17.785965,18.60195 -5.083421,3.95467 -3.798873,5.14186 -11.23583,6.35121 -7.436949,1.20934 -26.751679,-1.47602 -31.7071408,-6.16641 -4.955461,-4.69039 -3.021409,-3.11461 -2.11224,-8.3759 0.909184,-5.26133 10.6697818,-13.74822 13.0031768,-19.45164 2.333403,-5.70344 1.501913,-7.96937 2.529684,-13.33837 1.027778,-5.369 -0.172333,-11.95056 3.646427,-18.87375 3.818775,-6.92321 16.627504,-14.65305 20.577932,-19.30604 3.950428,-4.65298 2.689025,-2.08937 4.680762,-6.98239 1.991731,-4.89303 5.448204,-17.47364 4.229071,-22.90391 -1.219132,-5.43027 -0.284273,-6.18393 1.684838,-8.80808 1.969104,-2.62415 2.29913,0.59414 6.625486,3.53727 4.326362,2.94313 7.009946,10.98784 9.150501,16.72021 2.140549,5.73237 -5.142018,10.05482 -0.03388,14.90185 5.108134,4.84704 18.287779,-1.4207 27.307913,-1.49571 9.02013,-0.075 16.36764,-0.31048 26.75439,1.0195 10.38675,1.32997 23.94055,7.4619 35.2129,7.74931 11.27236,0.28742 23.11195,-1.92128 31.16809,-5.21026 8.05615,-3.28898 7.87525,-16.32477 16.89744,-11.79924 z"
         style="fill:#92561b;fill-opacity:1;fill-rule:evenodd;stroke:#000000;stroke-width:2;stroke-linecap:butt;stroke-linejoin:miter;stroke-miterlimit:4;stroke-dasharray:none;stroke-opacity:1" />
      <path
         style="color:#000000;clip-rule:nonzero;display:inline;overflow:visible;visibility:visible;opacity:1;isolation:auto;mix-blend-mode:normal;color-interpolation:sRGB;color-interpolation-filters:linearRGB;solid-color:#000000;solid-opacity:1;fill:#8e7e6c;fill-opacity:1;fill-rule:nonzero;stroke:#000000;stroke-width:1;stroke-linecap:butt;stroke-linejoin:round;stroke-miterlimit:4;stroke-dasharray:none;stroke-dashoffset:0;stroke-opacity:1;color-rendering:auto;image-rendering:auto;shape-rendering:auto;text-rendering:auto;enable-background:accumulate"
         d="m 215.02597,-79.07639 c 16.09332,35.18966 60.91221,91.72334 60.91221,91.72334 3.09591,4.66191 1.83519,10.90736 -2.82671,14.00327 0,0 -32.53144,17.96585 -46.28242,30.73552 -4.10076,3.80811 -10.90736,1.83519 -14.00327,-2.82672 0,0 -35.00357,-61.8392802 -60.9122,-91.72334 -3.6659,-4.22838 -1.66062,-12.40962 2.8267,-14.00326 17.60048,-6.25074 46.28242,-30.73552 46.28242,-30.73552 4.66191,-3.09591 11.67579,-2.26258 14.00327,2.82671 z"
         id="rect18624-6-3"
         inkscape:connector-curvature="0"
         sodipodi:nodetypes="sssssssss" />
      <path
         sodipodi:nodetypes="zzzzzzzzzzzzzzzzzzzzzzzzzzzzzz"
         inkscape:connector-curvature="0"
         id="path18499-9"
         d="m 139.96112,138.68913 c -3.36316,9.5168 16.0434,15.86333 26.78572,29.64285 10.74232,13.77952 24.76316,42.1207 36.07144,53.92858 11.30827,11.80788 15.78218,20.69578 26.78571,19.64285 11.00353,-1.05293 16.62487,-16.67723 22.49999,-24.28571 5.87513,-7.60848 10.60072,-13.04847 13.21429,-20.71429 2.61357,-7.66582 2.08854,-15.26811 2.14285,-23.92857 0.0543,-8.66046 -2.82095,-19.43086 -2.14285,-27.85714 0.6781,-8.42628 2.28937,-14.70722 5.35714,-22.14286 3.06777,-7.43564 9.19811,-17.236 13.21428,-21.78571 4.01617,-4.549715 2.75876,-4.898106 8.57143,-6.785724 5.81267,-1.887618 19.30924,1.746598 25.71429,1.07143 6.40506,-0.675168 6.30264,1.07097 12.5,-3.21429 6.19737,-4.28526 18.25294,-19.612785 18.57143,-26.42857 0.3185,-6.815785 0.0175,-4.339287 -4.28572,-7.5 -4.30324,-3.160713 -17.22109,-2.508241 -22.85714,-5 -5.63604,-2.491759 -6.60806,-4.701059 -11.07143,-7.85714 -4.46336,-3.156081 -8.16216,-8.730681 -15.71428,-11.07143 -7.55212,-2.340749 -22.14143,0.970761 -28.21429,0.35714 -6.07286,-0.613621 -3.38636,0.359007 -8.21429,-1.78571 -4.82793,-2.144717 -16.04176,-8.813229 -18.92856,-13.571431 -2.8868,-4.758201 -4.08301,-4.65305 -7.32143,-5.178572 -3.23842,-0.525522 -1.24471,2.022305 -2.32142,7.142859 -1.07671,5.120555 2.56767,12.778068 5,18.392854 2.43233,5.614786 10.67703,3.679771 10.35714,10.71429 -0.31989,7.034519 -14.16267,11.65676 -20.71429,17.85714 -6.55162,6.20038 -12.00926,11.125363 -18.57143,19.28572 -6.56218,8.160357 -12.07681,21.976824 -20.00001,30.000004 -7.9232,8.02318 -17.9859,14.64106 -26.07142,17.85714 -8.08552,3.21608 -16.99399,-6.30251 -20.35715,3.21429 z"
         style="fill:#a87444;fill-opacity:1;fill-rule:evenodd;stroke:#000000;stroke-width:2;stroke-linecap:butt;stroke-linejoin:miter;stroke-miterlimit:4;stroke-dasharray:none;stroke-opacity:1" />
      <path
         sodipodi:nodetypes="zzzzzzzzzzzzzzzzzzzzzzzzzzzzzz"
         inkscape:connector-curvature="0"
         id="path18499"
         d="m 255.35715,130.93364 c 15.00606,0.5723 32.78546,24.48081 22.04314,38.26033 -10.74232,13.77952 -66.28223,31.32863 -11.15915,56.42278 55.12307,25.09415 -86.49286,64.13234 -97.49639,63.07941 -11.00353,-1.05293 -19.65533,-71.22547 -25.53046,-78.83395 -5.87513,-7.60848 -10.60072,-13.04847 -13.21429,-20.71429 -2.61357,-7.66582 -2.08854,-15.26811 -2.14285,-23.92857 -0.0543,-8.66046 2.82095,-19.43086 2.14285,-27.85714 -0.6781,-8.42628 -2.28937,-14.70722 -5.35714,-22.14286 -3.06777,-7.43564 -9.19811,-17.236003 -13.21428,-21.785714 -4.01617,-4.549711 -2.75876,-4.898102 -8.57143,-6.78572 -5.812672,-1.887618 -19.309238,1.746598 -25.714294,1.07143 -6.405056,-0.675168 -6.302632,1.07097 -12.5,-3.21429 -6.197368,-4.28526 -18.252932,-19.612785 -18.57143,-26.42857 -0.318498,-6.815785 -0.01753,-4.339287 4.28572,-7.5 4.303248,-3.160713 17.221097,-2.508241 22.85714,-5 5.636043,-2.491759 6.608068,-4.701059 11.07143,-7.85714 4.463362,-3.156081 8.162161,-8.730681 15.71428,-11.07143 7.552124,-2.340749 22.141434,0.970761 28.214294,0.35714 6.07286,-0.613621 3.38636,0.359007 8.21429,-1.78571 4.82793,-2.144717 16.04177,-8.813229 18.92857,-13.57143 2.8868,-4.7582009 4.08301,-4.6530499 7.32143,-5.1785719 3.23842,-0.525522 1.24471,2.0223046 2.32142,7.1428589 1.07671,5.120554 -2.56767,12.778067 -5,18.392853 -2.43233,5.614786 -10.67703,3.679771 -10.35714,10.71429 0.31989,7.034519 14.16267,11.65676 20.71429,17.85714 6.55162,6.20038 12.00926,11.125363 18.57143,19.28572 6.56217,8.160357 12.0768,21.976824 20,30.000004 7.9232,8.02318 17.9859,14.64106 26.07142,17.85714 8.08552,3.21608 5.35109,2.64199 20.35715,3.21429 z"
         style="fill:#b3610f;fill-opacity:1;fill-rule:evenodd;stroke:#000000;stroke-width:2;stroke-linecap:butt;stroke-linejoin:miter;stroke-miterlimit:4;stroke-dasharray:none;stroke-opacity:1" />
      <ellipse
         style="color:#000000;clip-rule:nonzero;display:inline;overflow:visible;visibility:visible;opacity:1;isolation:auto;mix-blend-mode:normal;color-interpolation:sRGB;color-interpolation-filters:linearRGB;solid-color:#000000;solid-opacity:1;fill:#3c8c50;fill-opacity:1;fill-rule:nonzero;stroke:#000000;stroke-width:1.15291882;stroke-linecap:butt;stroke-linejoin:round;stroke-miterlimit:4;stroke-dasharray:none;stroke-dashoffset:0;stroke-opacity:1;color-rendering:auto;image-rendering:auto;shape-rendering:auto;text-rendering:auto;enable-background:accumulate"
         id="path18579"
         cx="117.05723"
         cy="11.71066"
         transform="matrix(0.96515645,0.26167351,-0.39808612,0.91734805,0,0)"
         rx="7.359818"
         ry="5.5521059" />
      <ellipse
         style="color:#000000;clip-rule:nonzero;display:inline;overflow:visible;visibility:visible;opacity:1;isolation:auto;mix-blend-mode:normal;color-interpolation:sRGB;color-interpolation-filters:linearRGB;solid-color:#000000;solid-opacity:1;fill:#000000;fill-opacity:1;fill-rule:nonzero;stroke:#000000;stroke-width:0.54791397;stroke-linecap:butt;stroke-linejoin:round;stroke-miterlimit:4;stroke-dasharray:none;stroke-dashoffset:0;stroke-opacity:1;color-rendering:auto;image-rendering:auto;shape-rendering:auto;text-rendering:auto;enable-background:accumulate"
         id="path18579-8"
         cx="94.471703"
         cy="-65.685211"
         rx="2.9437916"
         ry="3.1350536"
         transform="matrix(0.55321112,0.83304109,-0.83304109,0.55321112,0,0)" />
      <ellipse
         style="color:#000000;clip-rule:nonzero;display:inline;overflow:visible;visibility:visible;opacity:1;isolation:auto;mix-blend-mode:normal;color-interpolation:sRGB;color-interpolation-filters:linearRGB;solid-color:#000000;solid-opacity:1;fill:#3c8c50;fill-opacity:1;fill-rule:nonzero;stroke:#000000;stroke-width:1.15291882;stroke-linecap:butt;stroke-linejoin:round;stroke-miterlimit:4;stroke-dasharray:none;stroke-dashoffset:0;stroke-opacity:1;color-rendering:auto;image-rendering:auto;shape-rendering:auto;text-rendering:auto;enable-background:accumulate"
         id="path18579-1"
         cx="292.14838"
         cy="-24.962475"
         transform="matrix(0.96515645,0.26167351,-0.39808612,0.91734805,0,0)"
         rx="7.359818"
         ry="5.5521059" />
      <ellipse
         style="color:#000000;clip-rule:nonzero;display:inline;overflow:visible;visibility:visible;opacity:1;isolation:auto;mix-blend-mode:normal;color-interpolation:sRGB;color-interpolation-filters:linearRGB;solid-color:#000000;solid-opacity:1;fill:#000000;fill-opacity:1;fill-rule:nonzero;stroke:#000000;stroke-width:0.54791397;stroke-linecap:butt;stroke-linejoin:round;stroke-miterlimit:4;stroke-dasharray:none;stroke-dashoffset:0;stroke-opacity:1;color-rendering:auto;image-rendering:auto;shape-rendering:auto;text-rendering:auto;enable-background:accumulate"
         id="path18579-8-0"
         cx="206.17741"
         cy="-211.88756"
         rx="2.9437916"
         ry="3.1350536"
         transform="matrix(0.55321112,0.83304109,-0.83304109,0.55321112,0,0)" />
      <ellipse
         style="color:#000000;clip-rule:nonzero;display:inline;overflow:visible;visibility:visible;opacity:1;isolation:auto;mix-blend-mode:normal;color-interpolation:sRGB;color-interpolation-filters:linearRGB;solid-color:#000000;solid-opacity:1;fill:#3c8c50;fill-opacity:1;fill-rule:nonzero;stroke:#000000;stroke-width:1.15291882;stroke-linecap:butt;stroke-linejoin:round;stroke-miterlimit:4;stroke-dasharray:none;stroke-dashoffset:0;stroke-opacity:1;color-rendering:auto;image-rendering:auto;shape-rendering:auto;text-rendering:auto;enable-background:accumulate"
         id="path18579-3"
         cx="121.62438"
         cy="-114.48647"
         transform="matrix(-0.42588709,0.90477632,-0.83392409,-0.55187917,0,0)"
         rx="7.359818"
         ry="5.5521059" />
      <ellipse
         style="color:#000000;clip-rule:nonzero;display:inline;overflow:visible;visibility:visible;opacity:1;isolation:auto;mix-blend-mode:normal;color-interpolation:sRGB;color-interpolation-filters:linearRGB;solid-color:#000000;solid-opacity:1;fill:#000000;fill-opacity:1;fill-rule:nonzero;stroke:#000000;stroke-width:0.54791397;stroke-linecap:butt;stroke-linejoin:round;stroke-miterlimit:4;stroke-dasharray:none;stroke-dashoffset:0;stroke-opacity:1;color-rendering:auto;image-rendering:auto;shape-rendering:auto;text-rendering:auto;enable-background:accumulate"
         id="path18579-8-04"
         cx="28.030207"
         cy="-175.01294"
         rx="2.9437916"
         ry="3.1350536"
         transform="matrix(-0.91671071,0.39955158,-0.39955158,-0.91671071,0,0)" />
      <path
         style="color:#000000;clip-rule:nonzero;display:inline;overflow:visible;visibility:visible;opacity:1;isolation:auto;mix-blend-mode:normal;color-interpolation:sRGB;color-interpolation-filters:linearRGB;solid-color:#000000;solid-opacity:1;fill:#887a6a;fill-opacity:1;fill-rule:nonzero;stroke:#000000;stroke-width:1;stroke-linecap:butt;stroke-linejoin:round;stroke-miterlimit:4;stroke-dasharray:none;stroke-dashoffset:0;stroke-opacity:1;color-rendering:auto;image-rendering:auto;shape-rendering:auto;text-rendering:auto;enable-background:accumulate"
         d="m 35.710598,-244.66954 c 16.093317,35.18967 60.91221,91.72335 60.91221,91.72335 3.095905,4.6619 1.835193,10.90735 -2.826713,14.00326 0,0 -32.531434,17.96585 -46.282422,30.73552 -4.100759,3.80811 -10.907357,1.83519 -14.003262,-2.82671 0,0 -35.0035778,-61.83929 -60.91221,-91.72334 -3.665891,-4.22839 -1.660613,-12.40962 2.826707,-14.00327 17.6004793,-6.25074 46.282422,-30.73552 46.282422,-30.73552 4.661906,-3.09591 11.675786,-2.26257 14.003268,2.82671 z"
         id="rect18624-6"
         inkscape:connector-curvature="0"
         sodipodi:nodetypes="sssssssss" />
      <path
         style="color:#000000;clip-rule:nonzero;display:inline;overflow:visible;visibility:visible;opacity:1;isolation:auto;mix-blend-mode:normal;color-interpolation:sRGB;color-interpolation-filters:linearRGB;solid-color:#000000;solid-opacity:1;fill:#968673;fill-opacity:1;fill-rule:nonzero;stroke:#000000;stroke-width:1;stroke-linecap:butt;stroke-linejoin:round;stroke-miterlimit:4;stroke-dasharray:none;stroke-dashoffset:0;stroke-opacity:1;color-rendering:auto;image-rendering:auto;shape-rendering:auto;text-rendering:auto;enable-background:accumulate"
         d="m -105.9385,-87.735994 c 11.78459,28.307688 47.975703,72.243174 47.975703,72.243174 2.438393,3.671807 0.783247,9.0305989 -3.711106,12.0152366 0,0 -31.0664,17.7655444 -44.618957,29.6308334 -4.04158,3.53841 -10.07558,2.431417 -12.51397,-1.240391 0,0 -26.82717,-49.198875 -47.9757,-72.243169 -2.99237,-3.260612 -0.50222,-10.309132 3.7111,-12.015245 16.52575,-6.691846 44.61895,-29.63083 44.61895,-29.63083 4.49434,-2.984636 10.80964,-2.853588 12.51398,1.240391 z"
         id="rect18624-6-7"
         inkscape:connector-curvature="0"
         sodipodi:nodetypes="sssssssss" />
    </g>
    <rect
       style="color:#000000;clip-rule:nonzero;display:inline;overflow:visible;visibility:visible;opacity:1;isolation:auto;mix-blend-mode:normal;color-interpolation:sRGB;color-interpolation-filters:linearRGB;solid-color:#000000;solid-opacity:1;fill:#9d6545;fill-opacity:1;fill-rule:nonzero;stroke:#000000;stroke-width:2;stroke-linecap:butt;stroke-linejoin:round;stroke-miterlimit:4;stroke-dasharray:none;stroke-dashoffset:0;stroke-opacity:1;color-rendering:auto;image-rendering:auto;shape-rendering:auto;text-rendering:auto;enable-background:accumulate"
       id="rect18545"
       width="259.58231"
       height="475.36987"
       x="486.90698"
       y="2.8271692" />
    <rect
       style="color:#000000;clip-rule:nonzero;display:inline;overflow:visible;visibility:visible;opacity:1;isolation:auto;mix-blend-mode:normal;color-interpolation:sRGB;color-interpolation-filters:linearRGB;solid-color:#000000;solid-opacity:1;fill:#9d6545;fill-opacity:1;fill-rule:nonzero;stroke:#000000;stroke-width:2;stroke-linecap:butt;stroke-linejoin:round;stroke-miterlimit:4;stroke-dasharray:none;stroke-dashoffset:0;stroke-opacity:1;color-rendering:auto;image-rendering:auto;shape-rendering:auto;text-rendering:auto;enable-background:accumulate"
       id="rect18547"
       width="32.331211"
       height="475.19119"
       x="518.81171"
       y="2.9024594" />
    <rect
       style="color:#000000;clip-rule:nonzero;display:inline;overflow:visible;visibility:visible;opacity:1;isolation:auto;mix-blend-mode:normal;color-interpolation:sRGB;color-interpolation-filters:linearRGB;solid-color:#000000;solid-opacity:1;fill:#9d6545;fill-opacity:1;fill-rule:nonzero;stroke:#000000;stroke-width:2;stroke-linecap:butt;stroke-linejoin:round;stroke-miterlimit:4;stroke-dasharray:none;stroke-dashoffset:0;stroke-opacity:1;color-rendering:auto;image-rendering:auto;shape-rendering:auto;text-rendering:auto;enable-background:accumulate"
       id="rect18547-8"
       width="32.333324"
       height="474.65756"
       x="597.15839"
       y="3.363158" />
    <rect
       style="color:#000000;clip-rule:nonzero;display:inline;overflow:visible;visibility:visible;opacity:1;isolation:auto;mix-blend-mode:normal;color-interpolation:sRGB;color-interpolation-filters:linearRGB;solid-color:#000000;solid-opacity:1;fill:#9d6545;fill-opacity:1;fill-rule:nonzero;stroke:#000000;stroke-width:2;stroke-linecap:butt;stroke-linejoin:round;stroke-miterlimit:4;stroke-dasharray:none;stroke-dashoffset:0;stroke-opacity:1;color-rendering:auto;image-rendering:auto;shape-rendering:auto;text-rendering:auto;enable-background:accumulate"
       id="rect18547-8-4"
       width="32.333324"
       height="474.65756"
       x="678.89954"
       y="3.3452158" />
  </g>
</svg>
